<svg xmlns="http://www.w3.org/2000/svg" viewBox="0 0 128 128"><defs><style>.cls-1{fill:#4caf50;}.cls-2{fill:#007bff;}.cls-3{fill:#ff9800;}</style></defs><g id="Layer_10" data-name="Layer 10"><path class="cls-1" d="M101.06,36.71c-1.18.61-2.37,1.26-3.59,2a69,69,0,0,0-10.93,8,.26.26,0,0,1-.45-.25,56.66,56.66,0,0,0,1.64-17.66c-.66-10.26-5-18.71-5-19,.64-1,4.49-4.31,7.42-6.67A9.65,9.65,0,0,1,92.34,7Z"/><path class="cls-1" d="M77.57,55.5S75,62.13,65.77,70a.53.53,0,0,1-.36.15.35.35,0,0,1-.3-.36q.8-19,1.57-38a.65.65,0,0,1,.12-.34,28.41,28.41,0,0,1,2.86-5.93c6-9.63,10.72-13.11,10.76-12.83a75.25,75.25,0,0,1,2,16.5A72.59,72.59,0,0,1,77.57,55.5Z"/><path class="cls-2" d="M34.15,78.51c-.49.31-1.37-.09-1.7-.22a65.08,65.08,0,0,0-15.17-2.4L22.41,60.6a26.18,26.18,0,0,1,3.77,2.84,24.78,24.78,0,0,1,4.25,5.35C32.14,71.46,35.64,77.61,34.15,78.51Z"/><path class="cls-2" d="M56.77,86.33c-.15,0-.31.08-.46.12s-7.24-4.28-7.24-4.28a33.79,33.79,0,0,0-4.18-3.12c-2.21-1.38-2.62-1.31-3.74-2.23-1.62-1.32-2-2.53-3.27-4.88-1.05-2-2.39-3.78-3.55-5.67-1.45-2.35-4.33-5.62-10.57-9.72l5.77-17.21A104,104,0,0,1,43.68,51.79a65.87,65.87,0,0,1,9.67,13c.3.53.64,1.16,1,1.91,0,0,.3.59.57,1.16C56.39,70.88,57,86.28,56.77,86.33Z"/><path class="cls-1" d="M111.35,71.87a50.09,50.09,0,0,0-14.11,3.42,42.59,42.59,0,0,0-23.43,23.1.84.84,0,0,1-.67.56c-.39,0-.74-.38-.85-.51-4.9-5.7-1.85-16.94-1.85-16.94C74.69,65.89,87.51,55.09,94,49.75a108,108,0,0,1,8.92-6.63Z"/><path class="cls-3" d="M87.45,1.06A77.68,77.68,0,0,0,77.86,8,71.23,71.23,0,0,0,66.31,20.29a.23.23,0,0,1-.39-.05A47.32,47.32,0,0,0,53.32,0H83.06A9.61,9.61,0,0,1,87.45,1.06Z"/><path class="cls-2" d="M46.06,128H10.53a7.72,7.72,0,0,1-7.31-10.17L15.66,80.7C72.86,83.06,46.06,128,46.06,128Z"/><path class="cls-3" d="M117.48,128H80.15c-5.64-18.53.67-36.76,15.71-45.91a44.05,44.05,0,0,1,16.77-5.79l12.24,41.83A7.71,7.71,0,0,1,117.48,128Z"/><path class="cls-3" d="M56.16,55.62c0,.06-.19.06-.26,0Q50.38,50.88,44,45.94c-4.57-3.49-9.06-6.69-13.43-9.62l10-29.72A9.66,9.66,0,0,1,47.36.31a59.73,59.73,0,0,1,11.5,25A55.35,55.35,0,0,1,56.16,55.62Z"/></g></svg>